<?xml version="1.0" encoding="utf-8"?>
<!-- Generator: Adobe Illustrator 16.0.0, SVG Export Plug-In . SVG Version: 6.00 Build 0)  -->
<!DOCTYPE svg PUBLIC "-//W3C//DTD SVG 1.1//EN" "http://www.w3.org/Graphics/SVG/1.1/DTD/svg11.dtd">
<svg version="1.1" xmlns="http://www.w3.org/2000/svg" xmlns:xlink="http://www.w3.org/1999/xlink" x="0px" y="0px" width="300px"
	 height="300px" viewBox="0 0 300 300" enable-background="new 0 0 300 300" xml:space="preserve">
<g id="Layer_1">
</g>
<g id="Layer_2_1_">
	<g>
		<path fill-rule="evenodd" clip-rule="evenodd" fill="#FF0000" d="M95.776,157.135c0-10.072,0-20.152,0-30.231
			c0.859-2.974,3.019-3.638,5.847-3.624c18.544,0.056,37.086,0.028,55.63,0.028c0.452,0,0.908,0,1.45,0c0-0.511,0-0.876,0-1.242
			c0-4.852-0.021-9.707,0.015-14.555c0.007-1.106,0.083-2.236,0.344-3.304c0.546-2.232,2.734-3.221,4.793-2.219
			c0.717,0.348,1.408,0.779,2.042,1.259c1.871,1.423,3.687,2.908,5.547,4.334c5.763,4.396,11.564,8.747,17.303,13.178
			c6.254,4.824,12.469,9.7,18.667,14.601c1.825,1.443,3.735,2.876,4.462,5.272c0,0.616,0,1.235,0,1.854
			c-0.675,1.968-1.969,3.419-3.604,4.678c-2.149,1.659-4.197,3.439-6.291,5.171c-6.41,5.312-12.823,10.629-19.24,15.94
			c-4.657,3.856-9.304,7.725-13.972,11.564c-1.279,1.057-2.56,2.142-3.965,3.015c-1.94,1.207-3.972,0.358-4.587-1.84
			c-0.216-0.758-0.261-1.582-0.265-2.379c-0.021-5.467-0.011-10.935-0.011-16.402c0-0.357,0-0.716,0-1.105
			c-0.406-0.021-0.682-0.042-0.953-0.042c-19.65,0.004-39.294,0.011-58.944,0.028c-1.697,0-2.894-0.744-3.604-2.258
			C96.18,158.303,95.996,157.711,95.776,157.135z"/>
	</g>
</g>
</svg>
