<?xml version="1.0" encoding="utf-8"?>
<!-- Generator: Adobe Illustrator 16.0.0, SVG Export Plug-In . SVG Version: 6.00 Build 0)  -->
<!DOCTYPE svg PUBLIC "-//W3C//DTD SVG 1.1//EN" "http://www.w3.org/Graphics/SVG/1.1/DTD/svg11.dtd">
<svg version="1.1" xmlns="http://www.w3.org/2000/svg" xmlns:xlink="http://www.w3.org/1999/xlink" x="0px" y="0px" width="300px"
	 height="300px" viewBox="0 0 300 300" enable-background="new 0 0 300 300" xml:space="preserve">
<g id="Layer_1">
</g>
<g id="Layer_2">
	
		<ellipse fill-rule="evenodd" clip-rule="evenodd" fill="none" stroke="#FF0000" stroke-width="3" stroke-miterlimit="10" cx="152.456" cy="135.334" rx="43.866" ry="44.144"/>
	<rect x="150.71" y="91.194" fill-rule="evenodd" clip-rule="evenodd" width="3.318" height="16.969"/>
	<rect x="151.999" y="107.748" fill-rule="evenodd" clip-rule="evenodd" width="0.742" height="27.587"/>
	<path fill-rule="evenodd" clip-rule="evenodd" d="M154.086,114.028c0,0.946-0.769,1.712-1.716,1.712
		c-0.948,0-1.715-0.766-1.715-1.712c0-0.949,0.767-1.718,1.715-1.718C153.317,112.31,154.086,113.079,154.086,114.028z"/>
	<circle fill-rule="evenodd" clip-rule="evenodd" cx="152.371" cy="119.225" r="1.715"/>
	<circle fill-rule="evenodd" clip-rule="evenodd" cx="152.371" cy="125.199" r="1.715"/>
	<circle fill-rule="evenodd" clip-rule="evenodd" cx="152.371" cy="130.732" r="1.715"/>
	<rect x="150.71" y="162.135" fill-rule="evenodd" clip-rule="evenodd" width="3.318" height="16.975"/>
	<rect x="151.999" y="134.964" fill-rule="evenodd" clip-rule="evenodd" width="0.742" height="27.586"/>
	<circle fill-rule="evenodd" clip-rule="evenodd" cx="152.37" cy="156.273" r="1.714"/>
	<circle fill-rule="evenodd" clip-rule="evenodd" cx="152.37" cy="151.074" r="1.714"/>
	<circle fill-rule="evenodd" clip-rule="evenodd" cx="152.37" cy="145.1" r="1.714"/>
	<circle fill-rule="evenodd" clip-rule="evenodd" cx="152.37" cy="139.567" r="1.714"/>
	<rect x="108.227" y="133.674" fill-rule="evenodd" clip-rule="evenodd" width="16.968" height="3.321"/>
	<rect x="124.781" y="134.964" fill-rule="evenodd" clip-rule="evenodd" width="27.589" height="0.741"/>
	<path fill-rule="evenodd" clip-rule="evenodd" d="M131.058,133.62c0.949,0,1.719,0.768,1.719,1.714s-0.77,1.715-1.719,1.715
		c-0.943,0-1.712-0.769-1.712-1.715S130.114,133.62,131.058,133.62z"/>
	<path fill-rule="evenodd" clip-rule="evenodd" d="M136.261,133.62c0.947,0,1.712,0.768,1.712,1.714s-0.765,1.715-1.712,1.715
		c-0.949,0-1.715-0.769-1.715-1.715S135.312,133.62,136.261,133.62z"/>
	<path fill-rule="evenodd" clip-rule="evenodd" d="M142.231,133.62c0.951,0,1.719,0.768,1.719,1.714s-0.768,1.715-1.719,1.715
		c-0.941,0-1.712-0.769-1.712-1.715S141.29,133.62,142.231,133.62z"/>
	<path fill-rule="evenodd" clip-rule="evenodd" d="M147.769,133.62c0.942,0,1.712,0.768,1.712,1.714s-0.77,1.715-1.712,1.715
		c-0.95,0-1.719-0.769-1.719-1.715S146.818,133.62,147.769,133.62z"/>
	<rect x="179.362" y="133.674" fill-rule="evenodd" clip-rule="evenodd" width="16.97" height="3.321"/>
	<rect x="152.191" y="134.964" fill-rule="evenodd" clip-rule="evenodd" width="27.585" height="0.741"/>
	<circle fill-rule="evenodd" clip-rule="evenodd" cx="173.5" cy="135.335" r="1.715"/>
	<path fill-rule="evenodd" clip-rule="evenodd" d="M168.302,133.62c-0.948,0-1.717,0.768-1.717,1.714s0.769,1.715,1.717,1.715
		c0.945,0,1.711-0.769,1.711-1.715S169.247,133.62,168.302,133.62z"/>
	<path fill-rule="evenodd" clip-rule="evenodd" d="M162.323,133.62c-0.943,0-1.712,0.768-1.712,1.714s0.769,1.715,1.712,1.715
		c0.949,0,1.719-0.769,1.719-1.715S163.272,133.62,162.323,133.62z"/>
	<path fill-rule="evenodd" clip-rule="evenodd" d="M156.793,133.62c-0.945,0-1.712,0.768-1.712,1.714s0.767,1.715,1.712,1.715
		c0.949,0,1.716-0.769,1.716-1.715S157.742,133.62,156.793,133.62z"/>
</g>
</svg>
