<?xml version="1.0" encoding="utf-8"?>
<!-- Generator: Adobe Illustrator 16.0.0, SVG Export Plug-In . SVG Version: 6.00 Build 0)  -->
<!DOCTYPE svg PUBLIC "-//W3C//DTD SVG 1.1//EN" "http://www.w3.org/Graphics/SVG/1.1/DTD/svg11.dtd">
<svg version="1.1" xmlns="http://www.w3.org/2000/svg" xmlns:xlink="http://www.w3.org/1999/xlink" x="0px" y="0px" width="300px"
	 height="300px" viewBox="0 0 300 300" enable-background="new 0 0 300 300" xml:space="preserve">
<g id="Layer_1">
</g>
<g id="Layer_2">
	<g>
		<path fill-rule="evenodd" clip-rule="evenodd" d="M193.878,124.778c0,17.957,0,35.821,0,53.74c-35.938,0-71.808,0-107.746,0
			c0-17.926,0-35.79,0-53.74C122.039,124.778,157.903,124.778,193.878,124.778z M188.923,173.645c0-14.722,0-29.357,0-43.973
			c-32.684,0-65.27,0-97.849,0c0,14.703,0,29.313,0,43.973C123.696,173.645,156.264,173.645,188.923,173.645z"/>
		<path fill-rule="evenodd" clip-rule="evenodd" d="M188.96,114.943c0,1.583,0,3.099,0,4.72c-32.616,0-65.207,0-97.88,0
			c0-1.559,0-3.105,0-4.72C123.679,114.943,156.245,114.943,188.96,114.943z"/>
		<path fill-rule="evenodd" clip-rule="evenodd" d="M184.093,105.14c0,1.62,0,3.142,0,4.763c-29.369,0-58.714,0-88.132,0
			c0-1.571,0-3.124,0-4.763C125.293,105.14,154.637,105.14,184.093,105.14z"/>
		<path fill-rule="evenodd" clip-rule="evenodd" d="M137.769,164.205c-4.484-0.618-6.711-3.291-7.509-7.527
			c1.033-0.229,2.022-0.489,3.024-0.631c0.235-0.031,0.625,0.29,0.773,0.544c0.396,0.692,0.631,1.484,1.052,2.159
			c1.089,1.707,3.538,2.301,5.511,1.397c1.887-0.866,2.877-2.993,2.165-4.985c-0.253-0.711-0.785-1.441-1.392-1.881
			c-1.039-0.754-2.232-1.305-3.377-1.924c-0.94-0.507-1.924-0.946-2.833-1.49c-2.202-1.317-3.26-3.322-3.161-5.852
			c0.099-2.555,1.416-4.386,3.699-5.518c0.612-0.303,1.256-0.532,1.973-0.829c0-0.983,0-2.01,0-3.117c0.978,0,1.875,0,2.896,0
			c0,1.014,0,2.029,0,3.191c2.69,0.347,4.36,1.955,5.598,4.312c-1.033,0.588-2.048,1.169-3.136,1.788
			c-0.26-0.34-0.502-0.668-0.755-0.996c-1.039-1.336-2.406-1.868-4.058-1.528c-1.2,0.247-2.091,0.958-2.382,2.208
			c-0.303,1.28,0.062,2.369,1.2,3.086c0.804,0.507,1.664,0.928,2.512,1.374c1.144,0.606,2.331,1.157,3.451,1.806
			c2.598,1.521,3.965,3.805,3.785,6.835c-0.191,3.26-1.831,5.604-4.8,6.989c-0.414,0.192-0.848,0.347-1.349,0.551
			c0,1.045,0,2.109,0,3.272c-0.977,0-1.874,0-2.889,0C137.769,166.444,137.769,165.393,137.769,164.205z"/>
	</g>
</g>
</svg>
