<?xml version="1.0" encoding="utf-8"?>
<!-- Generator: Adobe Illustrator 16.0.0, SVG Export Plug-In . SVG Version: 6.00 Build 0)  -->
<!DOCTYPE svg PUBLIC "-//W3C//DTD SVG 1.1//EN" "http://www.w3.org/Graphics/SVG/1.1/DTD/svg11.dtd">
<svg version="1.1" xmlns="http://www.w3.org/2000/svg" xmlns:xlink="http://www.w3.org/1999/xlink" x="0px" y="0px" width="300px"
	 height="300px" viewBox="0 0 300 300" enable-background="new 0 0 300 300" xml:space="preserve">
<g id="Layer_1">
</g>
<g id="Layer_2">
	<g>
		<path fill-rule="evenodd" clip-rule="evenodd" d="M123.116,206.685c-9.744,0-19.08,0-28.736,0c0-15.467,0-30.758,0-46.865
			c-3.819,4.176-7.094,7.762-10.369,11.348c-3.636-3.799-6.678-6.984-9.494-9.922c22.503-22.503,45.328-45.338,67.927-67.93
			c22.505,22.51,45.334,45.335,68.099,68.1c-2.859,2.795-6.021,5.883-9.671,9.438c-2.965-3.096-6.177-6.449-9.854-10.277
			c0,15.674,0,30.752,0,46.053c-9.882,0-19.397,0-29.266,0c0-1.539,0-2.9,0-4.264c-0.007-9.068,0.106-18.139-0.057-27.209
			c-0.197-10.822-8.979-19.578-19.314-19.529c-10.373,0.053-19.027,8.781-19.214,19.639c-0.152,9.172-0.043,18.352-0.046,27.531
			C123.116,203.96,123.116,205.118,123.116,206.685z"/>
	</g>
</g>
</svg>
