<?xml version="1.0" encoding="utf-8"?>
<!-- Generator: Adobe Illustrator 16.0.0, SVG Export Plug-In . SVG Version: 6.00 Build 0)  -->
<!DOCTYPE svg PUBLIC "-//W3C//DTD SVG 1.1//EN" "http://www.w3.org/Graphics/SVG/1.1/DTD/svg11.dtd">
<svg version="1.1" xmlns="http://www.w3.org/2000/svg" xmlns:xlink="http://www.w3.org/1999/xlink" x="0px" y="0px" width="300px"
	 height="300px" viewBox="0 0 300 300" enable-background="new 0 0 300 300" xml:space="preserve">
<g id="Layer_1">
</g>
<g id="Layer_2">
	<g>
		<path fill-rule="evenodd" clip-rule="evenodd" d="M131.525,140.278c-3.658-2.157-6.888-4.663-9.511-7.851
			c-8.536-10.383-10.963-22.11-6.451-34.741c4.464-12.499,13.575-20.323,26.669-22.856c19.566-3.782,38.042,9.247,41.414,28.889
			c3.206,18.66-9.736,37.214-28.43,40.575c-3.485,0.628-7.087,0.538-10.599,1.039c-16.921,2.417-28.9,11.479-35.821,27.097
			c-2.706,6.117-3.485,12.627-3.274,19.277c0.061,1.848-0.79,3.166-2.299,3.736c-1.618,0.611-3.613,0.166-4.606-1.188
			c-0.44-0.6-0.787-1.412-0.817-2.139c-0.587-13.748,3.255-26.047,12.198-36.619c5.608-6.627,12.495-11.513,20.556-14.746
			C130.848,140.632,131.13,140.474,131.525,140.278z M121.225,109.425c-0.008,15.11,12.299,27.444,27.447,27.497
			c15.228,0.056,27.583-12.206,27.624-27.414c0.038-15.208-12.231-27.522-27.478-27.561
			C133.629,81.91,121.235,94.254,121.225,109.425z"/>
		<path fill-rule="evenodd" clip-rule="evenodd" d="M202.253,187.977c0,1.031,0.012,2.066-0.003,3.098
			c-0.034,2.553-1.758,4.408-4.062,4.385c-2.175-0.021-3.76-1.811-3.748-4.389c0.022-3.85-0.128-7.678-0.964-11.459
			c-2.014-9.111-6.47-16.813-13.247-23.199c-0.385-0.369-0.791-0.737-1.104-1.166c-1.192-1.66-0.971-3.719,0.516-5.032
			c1.63-1.441,3.636-1.471,5.266-0.007c6.296,5.653,10.956,12.43,13.959,20.342C200.996,176.16,202.106,181.971,202.253,187.977z"/>
	</g>
</g>
</svg>
