<?xml version="1.0" encoding="utf-8"?>
<!-- Generator: Adobe Illustrator 16.0.0, SVG Export Plug-In . SVG Version: 6.00 Build 0)  -->
<!DOCTYPE svg PUBLIC "-//W3C//DTD SVG 1.1//EN" "http://www.w3.org/Graphics/SVG/1.1/DTD/svg11.dtd">
<svg version="1.1" id="Layer_1" xmlns="http://www.w3.org/2000/svg" xmlns:xlink="http://www.w3.org/1999/xlink" x="0px" y="0px"
	 width="300px" height="300px" viewBox="0 0 300 300" enable-background="new 0 0 300 300" xml:space="preserve">
<g>
	<path fill-rule="evenodd" clip-rule="evenodd" d="M11.02,96.71c3.262-0.242,6.137-0.458,9.844-0.728c0-9.584,0-19.045,0-29.151
		c87.136,0,173.421,0,260.507,0c0,9.494,0,18.98,0,28.619c2.848,0.586,4.971,1.018,7.596,1.549c0,5.232,0,10.551,0,16.375
		c-2.248,0.316-4.539,0.626-7.084,0.983c0,23.142,0,45.98,0,69.371c2.256,0.357,4.512,0.715,7.098,1.133c0,5.561,0,10.865,0,16.656
		c-2.316,0.363-4.377,0.68-7.26,1.125c0,9.473,0,18.939,0,28.893c-87.139,0-173.443,0-260.506,0c0-9.791,0-19.277,0-29.094
		c-3.805-0.236-6.892-0.424-10.184-0.633c0-5.838,0-11.346,0-17.191c3.376-0.188,6.258-0.35,9.682-0.545c0-23.154,0-46.156,0-69.815
		c-3.094-0.149-6.15-0.311-9.692-0.486C11.02,108.034,11.02,102.527,11.02,96.71z M261.63,212.236c0-42.633,0-84.393,0-126.323
		c-73.896,0-147.213,0-220.584,0c0,42.429,0,84.39,0,126.323C114.854,212.236,188.022,212.236,261.63,212.236z"/>
	<path fill-rule="evenodd" clip-rule="evenodd" d="M123.533,184.066c3.38,0,5.763,0,8.875,0c0-28.496,0-56.708,0-85.525
		c6.167,0,11.627,0,17.513,0c0,33.221,0,66.314,0,99.65c-14.592,0-28.744,0-43.369,0c0-33.262,0-66.146,0-99.65
		c5.48,0,10.948,0,16.981,0C123.533,126.833,123.533,155.059,123.533,184.066z"/>
	<path fill-rule="evenodd" clip-rule="evenodd" d="M196.735,198.205c-12.686,0-24.408,0-36.615,0c0-9.109,0.506-17.924-0.141-26.65
		c-0.688-9.318-5.609-19.539-3.078-27.612c4.742-15.102,1.738-30.185,3.906-45.536c11.783,0,23.451,0,35.928,0
		c0,13.392,0.055,26.596-0.107,39.806c-0.014,1.05-1.717,1.993-2.182,3.164c-0.633,1.575-1.406,4.659-1.104,4.794
		c5.412,2.404,3.244,7.124,3.299,10.862C196.87,170.525,196.735,184.025,196.735,198.205z M181.101,156.541
		c-5.805,0.418-7.002,5.535-5.279,23.424c0.162,1.703,2.385,3.219,3.65,4.82c0.545-0.457,1.09-0.908,1.629-1.365
		C181.101,174.465,181.101,165.516,181.101,156.541z M182.077,125.958c-0.041,0-0.088,0-0.127,0c0-2.707,0.344-5.468-0.129-8.093
		c-0.275-1.508-1.865-2.794-2.869-4.181c-1.049,1.34-2.914,2.619-3.008,4.02c-0.377,5.628-0.385,11.312-0.109,16.947
		c0.063,1.137,1.914,2.996,2.996,3.037c1.045,0.041,2.91-1.724,3.098-2.902C182.388,131.91,182.077,128.907,182.077,125.958z"/>
	<path fill-rule="evenodd" clip-rule="evenodd" d="M209.784,198.043c0-33.004,0-65.917,0-99.475c12.361,0,24.725,0,37.678,0
		c0,9.049,0,18.024,0,27.445c-3.992,0-8.045,0-12.732,0c0-3.933,0-7.743,0-11.851c-3.971,0-7.318,0-11.209,0
		c0,23.257,0,46.25,0,69.74c3.002,0,5.83,0,10.422,0c-1.346-15.283-2.68-30.459-4.039-45.973c6.107,0,11.445,0,17.412,0
		c0,19.998,0,39.793,0,60.113C235.054,198.043,222.644,198.043,209.784,198.043z"/>
	<path fill-rule="evenodd" clip-rule="evenodd" d="M57.01,198.293c0-4.438-0.216-8.127,0.027-11.775
		c0.808-12.102-4.147-24.477-2.586-35.579c2.458-17.487,1.656-34.905,2.855-52.653c13.13,0,25.801,0,38.904,0
		c0,19.216,0,38.069,0,57.744c-7.622,0-15.122,0-23.222,0c0,14.475,0,28.145,0,42.264C67.581,198.293,62.807,198.293,57.01,198.293z
		 M80.461,142.615c0-9.789,0-18.791,0-28.333c-2.551,0-4.794,0-7.036,0c0,9.777,0,18.988,0,28.333
		C75.904,142.615,77.815,142.615,80.461,142.615z"/>
</g>
</svg>
