<?xml version="1.0" encoding="utf-8"?>
<!-- Generator: Adobe Illustrator 16.0.0, SVG Export Plug-In . SVG Version: 6.00 Build 0)  -->
<!DOCTYPE svg PUBLIC "-//W3C//DTD SVG 1.1//EN" "http://www.w3.org/Graphics/SVG/1.1/DTD/svg11.dtd">
<svg version="1.1" xmlns="http://www.w3.org/2000/svg" xmlns:xlink="http://www.w3.org/1999/xlink" x="0px" y="0px" width="300px"
	 height="300px" viewBox="0 0 300 300" enable-background="new 0 0 300 300" xml:space="preserve">
<g id="Layer_1">
</g>
<g id="Layer_2_1_">
	<g>
		<path fill-rule="evenodd" clip-rule="evenodd" d="M151.777,216.853c-1.139,0-2.279,0-3.414,0
			c-0.425-0.038-0.855-0.103-1.284-0.115c-5.333-0.161-10.589-0.893-15.7-2.466c-17.686-5.451-31.124-16.219-40.135-32.403
			c-4.329-7.778-6.809-16.165-7.709-25.013c-0.136-1.375-0.26-2.752-0.387-4.125c0-1.913,0-3.819,0-5.732
			c0.081-0.834,0.17-1.663,0.247-2.492c0.68-8.003,2.607-15.708,6.132-22.912c8.824-18.039,22.831-30.088,42.146-35.829
			c4.822-1.436,9.729-2.445,14.794-2.526c0.179-0.004,0.358-0.059,0.532-0.091c1.318,0,2.641,0,3.954,0
			c0.226,0.03,0.446,0.063,0.673,0.083c2.781,0.24,5.574,0.363,8.342,0.74c8.094,1.108,15.701,3.712,22.819,7.718
			c11.963,6.742,20.939,16.333,27.105,28.587c3.691,7.357,5.987,15.126,6.723,23.337c0.085,0.991,0.162,1.982,0.238,2.977
			c0,2.274,0,4.546,0,6.82c-0.034,0.242-0.098,0.484-0.106,0.732c-0.102,4.592-1.004,9.061-2.199,13.479
			c-7.917,29.304-34.087,47.576-59.244,48.996C154.125,216.688,152.951,216.771,151.777,216.853z M155.18,144.905
			c0-0.349,0-0.612,0-0.885c0-12.548,0-25.095,0-37.644c0-1.482-1.004-2.551-2.506-2.624c-1.198-0.057-2.406-0.115-3.609-0.102
			c-0.787,0.009-1.599,0.068-2.365,0.243c-0.863,0.193-1.441,0.782-1.496,1.716c-0.098,1.612-0.213,3.221-0.222,4.833
			c-0.017,12.368-0.008,24.734,0.009,37.1c0,1.905,0.097,3.819,0.195,5.725c0.055,0.918,0.8,1.59,1.702,1.641
			c1.02,0.06,2.041,0.132,3.062,0.136c11.184,0.052,22.367,0.085,33.547,0.119c1.203,0.009,2.301-0.9,2.348-2.117
			c0.077-2.02,0.077-4.049-0.004-6.068c-0.048-1.19-1.136-2.071-2.313-2.071c-9.139,0-18.277,0-27.42,0
			C155.822,144.905,155.532,144.905,155.18,144.905z"/>
	</g>
</g>
</svg>
