<?xml version="1.0" encoding="utf-8"?>
<!-- Generator: Adobe Illustrator 16.0.0, SVG Export Plug-In . SVG Version: 6.00 Build 0)  -->
<!DOCTYPE svg PUBLIC "-//W3C//DTD SVG 1.1//EN" "http://www.w3.org/Graphics/SVG/1.1/DTD/svg11.dtd">
<svg version="1.1" xmlns="http://www.w3.org/2000/svg" xmlns:xlink="http://www.w3.org/1999/xlink" x="0px" y="0px" width="300px"
	 height="300px" viewBox="0 0 300 300" enable-background="new 0 0 300 300" xml:space="preserve">
<g id="Layer_1">
</g>
<g id="Layer_2">
	<g>
		<path fill-rule="evenodd" clip-rule="evenodd" d="M109.053,196.385c3.464-3.661,6.807-7.193,10.393-10.971
			c10.441,10.648,22.97,15.966,37.824,14.752c10.726-0.873,20.044-5.219,27.812-12.715c15.222-14.703,18.462-37.718,7.907-55.822
			c-10.819-18.561-32.451-27.194-52.872-21.094c-19.208,5.737-33.529,24.842-32.565,43.86c6.467,0,12.967,0,20.3,0
			c-10.056,10.573-19.518,20.523-29.157,30.659c-8.898-10.082-17.657-20.018-26.869-30.459c7.019,0,13.486,0,20.149,0
			c0.563-18.428,7.22-33.774,20.754-45.876c10.49-9.382,22.895-14.477,36.917-15.297c28.977-1.694,54.84,16.931,62.642,44.912
			c7.65,27.437-5.068,56.722-30.512,70.269C157.837,221.348,126.032,216.125,109.053,196.385z"/>
		<path fill-rule="evenodd" clip-rule="evenodd" d="M143.065,124.021c3.502,0,6.641,0,10.199,0c0,4.27,0,8.464,0,12.662
			c0,4.243-0.17,8.49,0.088,12.71c0.09,1.448,0.892,3.264,1.978,4.171c6.992,5.824,14.147,11.44,21.499,17.328
			c-2.145,2.666-4.179,5.192-6.392,7.949c-7.839-6.278-15.368-12.612-23.242-18.47c-3.268-2.436-4.36-5.012-4.225-8.989
			C143.277,142.389,143.065,133.38,143.065,124.021z"/>
	</g>
</g>
</svg>
