<?xml version="1.0" encoding="utf-8"?>
<!-- Generator: Adobe Illustrator 16.0.0, SVG Export Plug-In . SVG Version: 6.00 Build 0)  -->
<!DOCTYPE svg PUBLIC "-//W3C//DTD SVG 1.1//EN" "http://www.w3.org/Graphics/SVG/1.1/DTD/svg11.dtd">
<svg version="1.1" id="Layer_1" xmlns="http://www.w3.org/2000/svg" xmlns:xlink="http://www.w3.org/1999/xlink" x="0px" y="0px"
	 width="480px" height="800px" viewBox="0 0 480 800" enable-background="new 0 0 480 800" xml:space="preserve">
<g>
	<path fill-rule="evenodd" clip-rule="evenodd" d="M262.551,353.061c13.654,15.565,26.889,30.649,40.629,46.313
		c-4.096,3.606-7.916,6.984-12.15,10.713c-56.379-63.498-112.481-126.675-169.488-190.884c-0.871,11.47,0.833,20.918,7.657,28.692
		c25.686,29.285,51.532,58.425,77.374,87.576c23.481,26.492,47.047,52.9,70.504,79.415c1.314,1.482,1.98,3.554,2.951,5.349
		c-0.711,0.459-1.422,0.909-2.125,1.36c-12.502-14.136-25.002-28.288-37.897-42.882c-5.944,6.586-11.687,12.853-17.322,19.21
		c-5.938,6.694-11.694,13.541-17.72,20.142c-1.081,1.192-3.103,1.513-4.684,2.238c0.642-1.673,0.882-3.705,1.99-4.966
		c11.4-13.044,22.942-25.957,34.862-39.375c-2.941-3.454-5.757-6.755-8.806-10.331c-13.28,14.916-26.259,29.495-39.746,44.64
		c-4.114-3.606-7.978-7.007-12.29-10.797c13.604-15.458,27.076-30.771,40.918-46.497c-6.323-7.061-12.413-13.792-18.431-20.601
		c-24.681-27.936-49.618-55.655-73.84-83.984c-7.847-9.173-8.466-21.044-7.171-33.262c13.842,0.439,25.949,3.503,35.349,14.208
		c27.061,30.81,54.31,61.458,81.488,92.164c1.582,1.788,3.187,3.557,5.196,5.796c1.888-2.056,3.503-3.767,5.062-5.528
		c26.807-30.286,53.611-60.583,80.416-90.873c9.994-11.286,20.355-15.749,36.586-15.497c1.498,12.528,0.352,24.716-8.191,34.535
		c-24.703,28.398-49.889,56.376-74.867,84.538C273.5,340.461,268.273,346.517,262.551,353.061z M259.93,350.406
		c6.701-7.691,12.77-14.736,18.92-21.701c24.07-27.241,48.27-54.363,72.178-81.749c6.496-7.45,8.107-16.654,7.047-27.745
		c-36.25,40.907-71.637,80.832-107.145,120.891C254.063,343.689,256.736,346.746,259.93,350.406z"/>
	<path fill-rule="evenodd" clip-rule="evenodd" d="M189.463,428.38c-12.795,14.487-25.09,28.41-37.862,42.867
		c-3.075-2.689-5.944-5.212-9.402-8.253c12.627-14.25,25.132-28.363,38.072-42.974C183.362,422.832,186.273,425.484,189.463,428.38z
		"/>
	<path fill-rule="evenodd" clip-rule="evenodd" d="M290.189,428.22c3.164-2.667,5.975-5.036,9.414-7.947
		c12.516,14.099,24.947,28.097,37.816,42.592c-3.035,2.743-5.969,5.402-9.307,8.421C315.42,456.874,303.041,442.807,290.189,428.22z
		"/>
	<path fill-rule="evenodd" clip-rule="evenodd" d="M120.773,448.522c2.434,1.353,4.382,2.056,5.842,3.315
		c9.689,8.437,19.264,17.002,28.902,25.491c3.4,2.996,4.853,6.419,1.49,10.117c-3.148,3.454-6.621,2.491-9.826-0.352
		c-9.75-8.649-19.661-17.116-29.136-26.057c-1.731-1.635-2.495-5.241-2.201-7.748C116.043,451.602,118.894,450.219,120.773,448.522z
		 M149.549,477.696c0.257-0.352,0.505-0.703,0.761-1.063c-8.818-7.763-17.552-15.626-26.557-23.16
		c-0.937-0.795-3.435,0.29-5.208,0.505c0.432,1.589,0.348,3.881,1.387,4.646c4.626,3.385,9.567,6.342,14.412,9.437
		C139.402,471.293,144.48,474.487,149.549,477.696z"/>
	<path fill-rule="evenodd" clip-rule="evenodd" d="M359.266,448.752c1.611,1.497,4.08,2.781,4.676,4.646
		c0.611,1.918,0.199,5.287-1.139,6.525c-10.354,9.636-20.975,18.988-31.688,28.234c-2.75,2.384-6.006,1.994-8.496-0.741
		c-2.492-2.751-2.6-6.091,0.068-8.528c10.453-9.536,21.098-18.858,31.756-28.149C355.475,449.836,357.096,449.615,359.266,448.752z
		 M329.465,476.596c0.283,0.352,0.566,0.703,0.855,1.055c9.918-6.35,19.883-12.623,29.664-19.18
		c0.963-0.657,0.732-3.102,1.068-4.707c-1.939,0.008-4.553-0.795-5.699,0.153C346.566,461.283,338.061,468.993,329.465,476.596z"/>
	<path fill-rule="evenodd" clip-rule="evenodd" d="M213.56,436.533c-1.219,1.59-2.018,3.676-3.148,3.866
		c-1.73,0.298-4.142-0.146-5.467-1.245c-6.171-5.074-12.073-10.484-18.064-15.779c-9.203-8.153-18.392-16.313-27.611-24.444
		c-2.41-2.132-4.52-4.508-1.772-7.534c2.659-2.926,5.292-1.329,7.736,0.849c14.858,13.272,29.763,26.484,44.605,39.772
		C211.153,433.194,212.116,434.761,213.56,436.533z M198.59,426.194c0.348-0.344,0.699-0.695,1.047-1.046
		c-12.306-10.852-24.585-21.732-36.998-32.453c-0.733-0.642-2.56-0.015-3.878,0.023c0.439,1.414,0.42,3.408,1.375,4.149
		C172.878,406.748,185.753,416.444,198.59,426.194z"/>
	<path fill-rule="evenodd" clip-rule="evenodd" d="M269.23,442.669c-0.727-1.559-1.988-3.063-1.996-4.569
		c0-1.818,0.52-4.203,1.742-5.364c6.352-6.021,12.982-11.736,19.531-17.544c8.512-7.534,17.041-15.03,25.537-22.58
		c2.506-2.224,5.227-4.432,8.152-1.192c3.02,3.339,0.268,5.692-2.191,7.878c-14.656,12.944-29.281,25.935-43.969,38.848
		C274.563,439.444,272.736,440.361,269.23,442.669z M280.148,425.193c0.352,0.352,0.695,0.711,1.039,1.063
		c12.799-9.75,25.629-19.462,38.328-29.342c0.963-0.757,0.994-2.736,1.453-4.142c-1.59,0.168-3.639-0.229-4.707,0.604
		c-4.799,3.774-9.385,7.848-13.961,11.912C294.881,411.891,287.529,418.554,280.148,425.193z"/>
	<path fill-rule="evenodd" clip-rule="evenodd" d="M132.541,456.041c13.494-15.26,26.145-29.571,39.822-45.037
		C172.053,417.17,138.172,455.292,132.541,456.041z"/>
	<path fill-rule="evenodd" clip-rule="evenodd" d="M344.105,457.004c-12.654-14.305-25.309-28.608-37.961-42.913
		c0.732-0.649,1.467-1.299,2.199-1.94c12.662,14.312,25.324,28.623,37.984,42.936C345.588,455.728,344.846,456.369,344.105,457.004z
		"/>
</g>
</svg>
